<?xml version="1.0" encoding="UTF-8" standalone="no"?>
<!DOCTYPE svg PUBLIC "-//W3C//DTD SVG 1.1//EN"
 "http://www.w3.org/Graphics/SVG/1.1/DTD/svg11.dtd">
<!-- Generated by graphviz version 14.0.5 (0)
 -->
<!-- Title: module Pages: 1 -->
<svg width="471pt" height="319pt"
 viewBox="0.00 0.00 471.00 319.00" xmlns="http://www.w3.org/2000/svg" xmlns:xlink="http://www.w3.org/1999/xlink">
<g id="graph0" class="graph" transform="scale(1 1) rotate(0) translate(4 315)">
<title>module</title>
<g id="clust1" class="cluster">
<title>cluster_outputs</title>
</g>
<g id="clust2" class="cluster">
<title>cluster_rpcs</title>
<polygon fill="#7986cb" fill-opacity="0.062745" stroke="#7986cb" stroke-dasharray="5,2" points="172,-79 172,-218 455.15,-218 455.15,-79 172,-79"/>
<text xml:space="preserve" text-anchor="middle" x="196.5" y="-200.7" font-family="fixed" font-size="14.00" fill="#b5e4f4">RPCs</text>
</g>
<g id="clust3" class="cluster">
<title>cluster_skills</title>
<polygon fill="#4ecdc4" fill-opacity="0.125490" stroke="#4ecdc4" stroke-dasharray="5,2" points="185.5,-8 185.5,-71 441.65,-71 441.65,-8 185.5,-8"/>
<text xml:space="preserve" text-anchor="middle" x="210" y="-53.7" font-family="fixed" font-size="14.00" fill="#b5e4f4">Skills</text>
</g>
<!-- CameraModule -->
<g id="node1" class="node">
<title>CameraModule</title>
<polygon fill="#0b0f0f" stroke="#5c9ff0" points="144,-125.8 0,-125.8 0,-68.2 144,-68.2 144,-125.8"/>
<text xml:space="preserve" text-anchor="middle" x="72" y="-94.22" font-family="fixed" font-size="12.00" fill="#b5e4f4">CameraModule</text>
</g>
<!-- out_color_image -->
<g id="node2" class="node">
<title>out_color_image</title>
<polygon fill="#95e1d3" fill-opacity="0.207843" stroke="#95e1d3" points="361.82,-255.72 261.75,-255.72 261.75,-234.28 365.4,-234.28 365.4,-252.15 361.82,-255.72"/>
<polyline fill="none" stroke="#95e1d3" points="361.82,-255.72 361.82,-252.15"/>
<polyline fill="none" stroke="#95e1d3" points="365.4,-252.15 361.82,-252.15"/>
<text xml:space="preserve" text-anchor="middle" x="313.57" y="-242.62" font-family="fixed" font-size="10.00" fill="#b5e4f4">color_image:Image</text>
</g>
<!-- CameraModule&#45;&gt;out_color_image -->
<g id="edge1" class="edge">
<title>CameraModule&#45;&gt;out_color_image</title>
<path fill="none" stroke="#95e1d3" d="M87.76,-126.26C104.15,-155.52 133.46,-199.34 172,-222 195.4,-235.76 224.57,-241.95 250.27,-244.53"/>
<polygon fill="#95e1d3" stroke="#95e1d3" points="249.66,-247.99 259.91,-245.32 250.23,-241.01 249.66,-247.99"/>
</g>
<!-- out_camera_info -->
<g id="node3" class="node">
<title>out_camera_info</title>
<polygon fill="#ffe66d" fill-opacity="0.207843" stroke="#ffe66d" points="374.2,-294.73 249.38,-294.73 249.38,-273.27 377.77,-273.27 377.77,-291.15 374.2,-294.73"/>
<polyline fill="none" stroke="#ffe66d" points="374.2,-294.73 374.2,-291.15"/>
<polyline fill="none" stroke="#ffe66d" points="377.77,-291.15 374.2,-291.15"/>
<text xml:space="preserve" text-anchor="middle" x="313.57" y="-281.62" font-family="fixed" font-size="10.00" fill="#b5e4f4">camera_info:CameraInfo</text>
</g>
<!-- CameraModule&#45;&gt;out_camera_info -->
<g id="edge2" class="edge">
<title>CameraModule&#45;&gt;out_camera_info</title>
<path fill="none" stroke="#ffe66d" d="M81.31,-125.98C94.03,-164.61 122.23,-231.94 172,-265 191.22,-277.76 215.19,-283.73 237.87,-286.17"/>
<polygon fill="#ffe66d" stroke="#ffe66d" points="237.46,-289.64 247.72,-286.99 238.04,-282.67 237.46,-289.64"/>
</g>
<!-- rpc_set_transport -->
<g id="node4" class="node">
<title>rpc_set_transport</title>
<polygon fill="#7986cb" fill-opacity="0.207843" stroke="#7986cb" points="440.5,-103.65 180,-103.65 180,-90.35 440.5,-90.35 447.15,-97 440.5,-103.65"/>
<text xml:space="preserve" text-anchor="middle" x="313.57" y="-94.83" font-family="fixed" font-size="9.00" fill="#b5e4f4">set_transport(stream_name: str, transport: Transport) &#45;&gt; bool</text>
</g>
<!-- CameraModule&#45;&gt;rpc_set_transport -->
<g id="edge3" class="edge">
<title>CameraModule&#45;&gt;rpc_set_transport</title>
<path fill="none" stroke="#7986cb" d="M144.23,-97C153.14,-97 162.48,-97 172,-97"/>
</g>
<!-- skill_video_stream -->
<g id="node7" class="node">
<title>skill_video_stream</title>
<polygon fill="#4ecdc4" fill-opacity="0.207843" stroke="#4ecdc4" points="427,-32.65 193.5,-32.65 193.5,-19.35 427,-19.35 433.65,-26 427,-32.65"/>
<text xml:space="preserve" text-anchor="middle" x="313.57" y="-23.82" font-family="fixed" font-size="9.00" fill="#b5e4f4">video_stream stream=passive reducer=latest_reducer</text>
</g>
<!-- CameraModule&#45;&gt;skill_video_stream -->
<g id="edge4" class="edge">
<title>CameraModule&#45;&gt;skill_video_stream</title>
<path fill="none" stroke="#4ecdc4" d="M144.23,-75.89C157.32,-72.01 171.35,-67.85 185.5,-63.66"/>
</g>
<!-- rpc_start -->
<g id="node5" class="node">
<title>rpc_start</title>
<polygon fill="#7986cb" fill-opacity="0.207843" stroke="#7986cb" points="338.88,-141.65 281.62,-141.65 281.62,-128.35 338.88,-128.35 345.52,-135 338.88,-141.65"/>
<text xml:space="preserve" text-anchor="middle" x="313.57" y="-132.82" font-family="fixed" font-size="9.00" fill="#b5e4f4">start() &#45;&gt; str</text>
</g>
<!-- rpc_stop -->
<g id="node6" class="node">
<title>rpc_stop</title>
<polygon fill="#7986cb" fill-opacity="0.207843" stroke="#7986cb" points="343.75,-179.65 276.75,-179.65 276.75,-166.35 343.75,-166.35 350.4,-173 343.75,-179.65"/>
<text xml:space="preserve" text-anchor="middle" x="313.57" y="-170.82" font-family="fixed" font-size="9.00" fill="#b5e4f4">stop() &#45;&gt; None</text>
</g>
</g>
</svg>
